#N canvas 625 26 707 373 12;
#X obj 270 210 text get samples;
#X obj 270 286 soundfiler;
#X obj 270 132 int;
#X floatatom 270 312 10 0 0 0 - - - 0;
#X obj 149 185 / 48;
#X obj 82 260 line~;
#X msg 82 235 0 \, \$2 \$3;
#X obj 82 312 outlet~;
#X obj 485 78 loadbang;
#X obj 485 132 text define samples;
#X msg 485 105 read resources/samples.txt;
#X text 115 21 Dynamically load samples in Pd using a list of your samples \;, f 64;
#X msg 270 260 read -resize resources/\$1 \$2-sample;
#X obj 485 159 array define \$0-sample;
#X obj 82 286 tabread4~ \$0-sample;
#X obj 29 79 notein 2;
#X obj 82 210 pack s f f;
#X obj 270 78 r sampleSelect;
#X msg 270 159 set \$1;
#X floatatom 270 186 5 0 0 0 - - - 0;
#X obj 270 235 pack s \$0;
#X obj 270 105 scale 0 1 0 1.99;
#X obj 82 153 t b b;
#X obj 82 103 != 0;
#X obj 82 128 sel 1;
#X obj 449 188 text size samples;
#X obj 449 215 - 0.01;
#X connect 0 0 20 0;
#X connect 1 0 3 0;
#X connect 2 0 18 0;
#X connect 3 0 4 0;
#X connect 3 0 16 1;
#X connect 4 0 16 2;
#X connect 5 0 14 0;
#X connect 6 0 5 0;
#X connect 8 0 10 0;
#X connect 8 0 25 0;
#X connect 10 0 9 0;
#X connect 12 0 1 0;
#X connect 14 0 7 0;
#X connect 15 1 23 0;
#X connect 16 0 6 0;
#X connect 17 0 21 0;
#X connect 18 0 19 0;
#X connect 19 0 0 0;
#X connect 20 0 12 0;
#X connect 21 0 2 0;
#X connect 22 0 16 0;
#X connect 22 1 19 0;
#X connect 23 0 24 0;
#X connect 24 0 22 0;
#X connect 25 0 26 0;
#X connect 26 0 21 4;
