#N canvas 612 270 742 657 12;
#X obj 31 67 / 127;
#X floatatom 31 91 5 0 0 0 - - - 0;
#X obj 31 114 s noiseCutoff;
#X obj 201 67 / 127;
#X floatatom 201 91 5 0 0 0 - - - 0;
#X obj 371 67 / 127;
#X floatatom 371 91 5 0 0 0 - - - 0;
#X obj 201 114 s noiseQ;
#X obj 371 114 s noiseLevel;
#X obj 31 43 ctlin 16 1;
#X obj 371 43 ctlin 22 1;
#X obj 201 43 ctlin 17 1;
#X text 335 17 Activity of Sensor 1;
#X text 170 17 Tilt Y of Sensor 1;
#X text 9 17 Tilt X of Sensor 1;
#X text 422 68 Normalize CC controller value for testing;
#X obj 32 208 / 127;
#X floatatom 32 232 5 0 0 0 - - - 0;
#X obj 32 184 ctlin 18 2;
#X text 9 158 Tilt Z of Sensor 2;
#X obj 32 255 s sampleSelect;
#X connect 0 0 1 0;
#X connect 1 0 2 0;
#X connect 3 0 4 0;
#X connect 4 0 7 0;
#X connect 5 0 6 0;
#X connect 6 0 8 0;
#X connect 9 0 0 0;
#X connect 10 0 5 0;
#X connect 11 0 3 0;
#X connect 16 0 17 0;
#X connect 17 0 20 0;
#X connect 18 0 16 0;
